<?xml version="1.0" encoding="UTF-8"?>
<svg width="1280px" height="1080px" viewBox="0 0 1280 1080" version="1.1" xmlns="http://www.w3.org/2000/svg" xmlns:xlink="http://www.w3.org/1999/xlink">
    <!-- Generator: Sketch 52.5 (67469) - http://www.bohemiancoding.com/sketch -->
    <title>Strategy Icon</title>
    <desc>Created with Sketch.</desc>
    <g id="Strategy-Icon" stroke="none" stroke-width="1" fill="none" fill-rule="evenodd">
        <g id="noun-strategy-844717" transform="translate(242.000000, 154.000000)" fill="#FFFFFF">
            <path d="M424.071685,209.067559 L411.288093,260.161765 C408.060194,273.101986 415.917664,286.204652 428.863763,289.4432 C430.831451,289.934948 432.792412,290.1707 434.739916,290.1707 C445.562374,290.1707 455.413927,282.841719 458.156891,271.868941 L482.308773,175.298839 C485.004296,164.534377 479.61325,152.820423 469.673543,147.84189 L373.066015,99.5568387 C361.124807,93.5886339 346.636955,98.4251578 340.666265,110.354928 C334.702475,122.278059 339.547619,136.773749 351.468539,142.742126 L399.886162,166.931212 C217.50495,247.489647 106.320035,391.560168 79.0801626,581.51011 C34.159387,589.809103 0,629.176078 0,676.429898 C0,729.679687 43.3371022,773 96.6075285,773 C149.877955,773 193.215057,729.679687 193.215057,676.429898 C193.215057,634.018378 165.673286,597.973588 127.558165,585.033194 C153.838863,412.46587 256.484362,281.751339 424.074272,209.065093 L424.071685,209.067559 Z M144.91043,676.432364 C144.91043,703.054672 123.239291,724.717415 96.6066659,724.717415 C69.9740405,724.717415 48.3029017,703.054672 48.3029017,676.432364 C48.3029017,649.810056 69.9740405,628.147313 96.6066659,628.147313 C123.239291,628.147313 144.91043,649.810056 144.91043,676.432364 Z" id="Shape" fill-rule="nonzero"></path>
            <path d="M475.926742,587.072482 C466.49665,577.642506 451.231057,577.642506 441.814233,587.072482 L386.493624,642.392412 L331.185078,587.084544 C321.754986,577.654568 306.489393,577.654568 297.072569,587.084544 C287.65609,596.51452 287.642477,611.779925 297.072569,621.196634 L352.381116,676.504502 L297.072569,731.81237 C287.642477,741.242346 287.642477,756.507751 297.072569,765.92446 C301.777534,770.642808 307.943012,772.998622 314.121931,772.998622 C320.300849,772.998622 326.466499,770.642808 331.184733,765.9379 L386.49328,710.61797 L441.801827,765.925838 C446.520233,770.644186 452.685711,773 458.864629,773 C465.043547,773 471.209198,770.644186 475.927431,765.939278 C485.357523,756.509302 485.357523,741.243896 475.927431,731.827188 L420.606822,676.507259 L475.915369,621.199391 C485.345461,611.769415 485.345461,596.504009 475.928832,587.073516 L475.926742,587.072482 Z" id="Path"></path>
            <path d="M765.926742,297.072482 C756.49665,287.642506 741.231057,287.642506 731.814233,297.072482 L676.493624,352.392412 L621.185078,297.084544 C611.754986,287.654568 596.489393,287.654568 587.072569,297.084544 C577.65609,306.51452 577.642477,321.779925 587.072569,331.196634 L642.381116,386.504502 L587.072569,441.81237 C577.642477,451.242346 577.642477,466.507751 587.072569,475.92446 C591.777534,480.642808 597.943012,482.998622 604.121931,482.998622 C610.300849,482.998622 616.466499,480.642808 621.184733,475.9379 L676.49328,420.61797 L731.801827,475.925838 C736.520233,480.644186 742.685711,483 748.864629,483 C755.043547,483 761.209198,480.644186 765.927431,475.939278 C775.357523,466.509302 775.357523,451.243896 765.927431,441.827188 L710.606822,386.507259 L765.915369,331.199391 C775.345461,321.769415 775.345461,306.504009 765.928832,297.073516 L765.926742,297.072482 Z" id="Path"></path>
            <path d="M7.06008663,185.937357 C11.7784683,190.642627 17.9439145,192.998621 24.1228009,192.998621 C30.3016873,192.998621 36.4673058,190.642627 41.1855152,185.937357 L96.4937771,130.61318 L151.802039,185.925295 C156.520421,190.644005 162.685867,193 168.864753,193 C175.04364,193 181.209258,190.644005 185.927468,185.938736 C195.357511,176.508036 195.357511,161.241458 185.927468,151.824027 L130.607144,96.4998492 L185.915406,41.1877343 C195.345449,31.7570343 195.345449,16.4904563 185.915406,7.07302506 C176.485363,-2.34406153 161.219848,-2.35767502 151.803073,7.07302506 L96.494811,62.3851399 L41.186549,7.07302506 C31.7565059,-2.35767502 16.4909913,-2.35767502 7.0742161,7.07302506 C-2.34221452,16.5037251 -2.35582706,31.7703031 7.0742161,41.1877343 L62.3824781,96.4998492 L7.0742161,151.811964 C-2.35582706,161.242664 -2.35582706,176.509242 7.06075347,185.940459 L7.06008663,185.937357 Z" id="Path"></path>
            <path d="M755.674547,7.06153828 L727.162224,35.5095228 L651.798847,110.714915 L596.307327,55.3486119 C586.848102,45.9107309 571.535346,45.9107309 562.089429,55.3486119 C552.643513,64.7864929 552.630204,80.0646954 562.089429,89.4892974 L634.683848,161.919908 C639.416832,166.642211 645.601358,169 651.799365,169 C657.997373,169 664.182072,166.642211 668.914882,161.933359 L789.905581,41.2156752 C799.364806,31.7777943 799.364806,16.4995917 789.905581,7.07498968 C780.446355,-2.34926746 765.133599,-2.36289131 755.673855,7.06151586 L755.674547,7.06153828 Z" id="Path"></path>
        </g>
    </g>
</svg>